<svg xmlns="http://www.w3.org/2000/svg" xmlns:xlink="http://www.w3.org/1999/xlink" viewBox="0 0 1561.48 858.14">
  <g id="forhjul">
    <image id="forhjul_Image" data-name="forhjul Image" width="514" height="513" transform="translate(1140.85 141.89) rotate(35.08)" xlink:href="cykelconfiguator1.png"/>
    <path d="M1545.74,661.39c10.8,8.59,32,30.43,38.93,42,10.15,17,21.27,35,28.67,53.13,13.65,33.38,18.79,65.64,17.45,103.91A239.38,239.38,0,0,1,1615,938.56c-4.74,12.5-7.28,16.3-12,25.79-15.76,31.69-39.73,56.23-59.17,72.08-8.37,6.83-15.8,13.3-23.46,17.74-48.26,28-89.72,43.64-145.81,40.58-36.41-2-54.79-8.3-66.83-12.72-3.92-1.45-28.35-10.51-37.9-15.63-10.17-5.45-58.57-27-91-81-35.62-59.38-44-113-36.51-175.94,1.82-15.31,7.76-30.39,12.53-47.42,6.55-23.42,23.13-52.24,56.5-87.4,19-20.09,47.8-37.84,42.16-33.94,34-23.46,67.32-32.91,104.67-37.68,10.92-1.4,20.48-2.61,32-2,18.13,1,37.55,3.49,33.51,2.75,28.5,5.24,35.64,8.21,51.5,15.4C1493.52,627.49,1511.55,634.22,1545.74,661.39Zm-53.15-16.55c-11-5.09-42.84-17.37-58.87-20.57-13-2.6-34.62-4.47-32.35-4.39-27.53-1-60.73.72-91.28,11.65-6.23,2.23-14,4.83-20.17,7.84-16.21,8-29.74,17.06-45.92,28.84-21.38,15.58-35.26,35.67-43.57,46.39-16.48,24-24.57,42.5-31.81,64.42a132.73,132.73,0,0,0-5.52,21.79c-1,5.91-1.62,13.13-2.4,19.08-.58,4.39-2.76,6.89-3,11.3-1.17,17.78,1.68,37,1.25,40-1.18,8.18,9.69,41.44,11.47,53.27,1.07,7.15,13.56,33.06,22.45,46.32,10.39,15.48,17.79,27.32,35,44.13,3.26,5.38,48.6,37.71,53.44,38.75,13.62,7,26.81,11.11,40.69,15.14,67.88,19.7,134,7.45,193.55-30.26,12.09-7.66,48.06-40.85,57.19-58.82,18.24-27.59,22.11-34.72,31.89-68,4.41-15,6.59-25.1,8.17-39.47.4-3.63.91-10.39,1.17-13.84a102.07,102.07,0,0,0-.29-22.21c-1.34-11.56-2.21-20.79-4.21-32.28-2.23-12.75-6.46-28.65-5-24.26-2.1-6.15-4.56-13.47-7-19.59-1.9-4.74-4.94-10.84-7.92-16.56-6.12-11.31-18.14-31.1-24.6-38.05,1.63.72-16.76-20.22-26.5-28.38C1524,664.45,1508.68,654.29,1492.59,644.84Z" transform="translate(-181.25 -349)" fill="none" fill-rule="evenodd"/>
    <image id="forhjul_skygge_Image" data-name="forhjul_skygge Image" width="494" height="495" transform="translate(1143.28 155.82) rotate(35.08)" xlink:href="cykelconfiguator2.png"/>
  </g>
  <g id="baghjul">
    <image id="baghjul_Image" data-name="baghjul Image" width="514" height="513" transform="matrix(0.81, -0.59, 0.59, 0.81, 0, 443.44)" xlink:href="cykelconfiguator3.png"/>
    <path d="M414.88,635.92c11.63-7.45,39.15-20.47,52.34-23.27,19.35-4.11,40-8.81,59.54-10,36-2.13,68.19,3.43,104,17.07a239.36,239.36,0,0,1,68.84,40.17c10.29,8.53,13.08,12.16,20.53,19.69,24.89,25.16,40.36,55.78,49.09,79.3,3.75,10.13,7.47,19.25,9.2,27.93,10.9,54.71,12.3,99-8.73,151.1C756,971.76,744.1,987.12,736,997.08c-2.64,3.25-19.11,23.43-27,30.82-8.45,7.86-44.46,46.7-106.06,59.91-67.71,14.52-121.15,5.08-178.3-22.31-13.9-6.67-26.25-17.17-40.82-27.18-20.05-13.77-42-38.78-64.46-81.72-12.84-24.52-20.35-57.47-18.48-50.86C289.64,866,291.49,831.39,299,794.5c2.2-10.78,4.15-20.23,8.43-30.89,6.77-16.84,15.45-34.39,13.44-30.81,14.17-25.28,19.29-31.08,31.22-43.76C365.93,674.37,378.12,659.48,414.88,635.92Zm-32.83,44.94c-8.38,8.77-30.29,34.93-38.5,49.06-6.66,11.47-15.42,31.32-14.61,29.2-9.8,25.74-18.94,57.7-18.47,90.15.09,6.61,0,14.85.89,21.61,2.29,17.91,6.54,33.66,12.46,52.78,7.82,25.27,22.35,44.9,29.81,56.23,17.37,23.34,32.28,37,50.69,50.92a131.68,131.68,0,0,0,18.83,12.26c5.27,2.84,11.9,5.78,17.28,8.45,4,2,5.63,4.83,9.71,6.53,16.45,6.86,35.56,10.38,38.24,11.74,7.35,3.76,42.34,4.23,54.11,6.37,7.12,1.29,35.67-2.15,51.1-6.28,18-4.83,31.6-8,53.07-18.86,6.15-1.34,51.4-33.8,53.94-38,11.08-10.61,19.17-21.78,27.47-33.62C768.66,921.5,778.44,855,762,786.42c-3.34-13.92-23.12-58.68-37.18-73.13-20.21-26.18-25.7-32.15-54.07-52.17-12.78-9-21.62-14.35-34.71-20.49-3.31-1.55-9.54-4.22-12.72-5.58a102.47,102.47,0,0,0-21.11-6.9c-11.38-2.47-20.39-4.63-31.91-6.45-12.79-2-29.21-3.15-24.56-3.14-6.5,0-14.22,0-20.81.3-5.1.27-11.85,1.18-18.23,2.15-12.68,2.14-35.29,7.11-44,11,1.21-1.31-24.55,9.32-35.42,15.9C410.76,657.44,396.18,668.68,382.05,680.86Z" transform="translate(-181.25 -349)" fill="none" fill-rule="evenodd"/>
    <image id="baghjul_skygge_Image" data-name="baghjul_skygge Image" width="494" height="495" transform="matrix(0.81, -0.59, 0.59, 0.81, 14.78, 445.05)" xlink:href="cykelconfiguator4.png"/>
  </g>
  <g id="stel">
    <image id="stel_Image" data-name="stel Image" width="892" height="530" transform="translate(339.75 17)" xlink:href="cykelconfiguator5.png"/>
    <path d="M1379,840c.08,6.92-1.64,8.34-3,13l-1-1c-1.15-1.8-.34-3-1-4-1.18-.8-1.68-.77-4-1-1.66.83-2.59.24-6,0,.45-5.67,2.4-6.35,3-12-5.24-4.19-7.17-10.29-11-16-.86-1.28-14.73-18.29-21-27-13.56-18.85-28-37.8-42-57-11.53-15.8-25.39-76.31-26-78-2.46-6.84-4.82-15.87-7-23-2.45-12.89-7.65-25.45-14-49l-6-1a121.57,121.57,0,0,0-3-12c-3.15-1.46-4.31-4.17-8-5-15.81,13.73-29.46,26.21-45,40-4.5,4-13.59,13.88-18,18-25.31,23.62-78,77.2-74,74-4.62,3.69-72.5,69.62-83,81-6.07,6.58-11.68,13.65-18,20-1.75,1.75-31.22,35-37,41s-17,14-17,14l-21-21s19.94-16.55,32-31c6.18-5.94,67-64,67-64s60.29-59.29,38-37c15-15,43-42,58-57,41.86-41.86,71.16-68.62,114-110,.65-8.28-1.26-20.41-9-23-5.07-3.18-19.78-1-27-1-20.93,0-67,2-67,2-.55.23-116.15,4.48-112,4,6.33,0-80,2-123,2-26.18,0-56.21.11-84,2-33.31,2.26-26.84,4.43-20,25,4.31,13,21.07,69,26,85,9.88,32.16,19.83,66.18,29,95,3.56,11.18,5,19.93,9,31,5.07,14.13,8.12,28.48,13,44,2.44,7.75,5.66,16.34,5,22-3.58,1.42-13.36,1.49-20,2-3.73-4.39-7-13-8-20a114.13,114.13,0,0,0-1-12c-1.39-6-3-13.82-5-20-17.57-53.86-31.69-108.37-50-163-5.82-17.36-12.27-37.78-17-55-2.4-8.75.28-19-10-20-3.73,3.92-8,8.21-11,12-3.77,4.78-20.55,30.93-22,33-6.87,9.8-13.31,19.07-20,29-4,6-7.92,11.2-12,17-3.09,4.39-7.12,9.4-10,14-2,3.22-7,10.77-9,14-8,13-17,25.82-21,31-3,3.9-8.82,12.53-9,13a90.12,90.12,0,0,1-6,8c-2.86,3.37-6.43,9.85-8,12-3.28,4.51-5.83,8.39-9,13-5.87,8.55-17.2,25.54-23,34-12.26,17.89-18.42,28.15-31,46-2.9,4.11-11.93,13.35-8,21,2.52,6.87,12.55,9.7,20,12,6.42,2,18.64.47,26-2,2.13-5.77,0-13,5-16,3.75-1.68,6,.4,6,5-.49,3.29-.11,8.31,0,12,7.5.07,12.27,3,18,4,16.25,2.72,48.33,7.2,55,8,16.88,1.87,42,5,42,5s18.43,2.57,24,4c7.92,2,9.93,2.56,18,5,3.23,1,8.36,1.9,11,3,4.39,1.82,20,5,25,6,0,1.67-1.44,3.64-1,4s-1,4.17-2,6c-1,4.36-2,5.54-3,8-.91,2.2-5.86.86-9.78.35C782.6,894.3,781,894.3,776,893c-11.4-2.94-26-5-38-8-3.33,0-8.67-2-12-2-31.32-4.58-60.59-8.69-91-13-9.12-1.4-14-3-18-3-15.8-1.5-22.74-1.82-34-4-9.42-1.82-19.75-2.29-27-7-4-4-9-8-13-12-4.28-2.49-9-3.47-11,0-1.21,2.11-1.54,3.1,0,6,5.3,3.55,14.89,6.86,16,13-.92.88-1.45,1.79-3,2-8-1.48-17.2-5.08-21-11-2.74-3.31-3.42-8-2.83-14.09,5-4.78,11.58-13.74,16.83-20.91,1.55-2.11,6.63-7.5,7-8,1.39-1.9,6.22-7,8-10,9.66-16.27,21.46-30.61,32-46,10.14-14.81,18.23-26.4,31-44,5.82-8,63.19-91.92,94-138,6.72-10.06,13.12-19.94,20-30,5.36-7.83,12.71-16.46,18-26,.67-9.49-1-23.68-1-29,1.75-.5,8.22-3.43,10-4a97.4,97.4,0,0,1,11-2c.51,5.29.48,13.3,3,15,2,2,23.3,0,33,0,28.72,0,50.77-1,80-1,22.33,0,46.67-1,69-1,14.81,0,39.49.14,41,0,1.76-.16,30.23-.59,32-1-28.52,0,132-2,132-2s38.78.55,52-2c1.34-3.27,2.25-7,5-9,4.87-3.72,16.89-6.62,24-7l1,1c.19,8,3.92,13.6,6,19,2,5.17-3.36,20.47-2,25,1.14,3.81,5.63,6.16,7,9,2.08,4.3-.1,8.37,2,12l7,7c3.06,6.7,1.65,13.6,4,21,.29.9,2.83,3.52,3,4,1.4,4-2.6,4.87-2,8,.79,4.12,3.85,5,2,10,5.7,11.65,8.13,25.38,12,39,12.24,43.11,21.11,86.66,43,120,16.54,25.19,34.75,50.93,53,75,2,2.69,3.77,1.18,7,3v1c2.64,1.92,3.54,6.5,6,8,4.53,2.76,6.92.8,9,6,1.08,2,.15,7.51,0,12-3.1,1.68-3,2.67-8,3v-2c-1.71-2.87.45-5.22,0-8-.23-1.43-2.34-4.51-3-6ZM533,829v4h3c.63-1.75.19-1,1-2l-1-1C534.93,829.25,535.05,829.4,533,829Z" transform="translate(-181.25 -349)" fill="none" fill-rule="evenodd"/>
    <image id="stel_skygge_Image" data-name="stel_skygge Image" width="892" height="530" transform="translate(339.75 17)" xlink:href="cykelconfiguator6.png"/>
  </g>
  <g id="base">
    <image width="1134" height="745" transform="translate(101.75 17)" xlink:href="cykelconfiguator7.png"/>
  </g>
  <g id="saddel_et">
    <image id="saddel_et_Image" data-name="saddel_et Image" width="220" height="136" transform="translate(439.75 10)" xlink:href="cykelconfiguator8.png"/>
    <path d="M787,362c13.51-.3,27-.81,37,2a37.49,37.49,0,0,1,14,7c.43,1.58.91,2.63-1,4a64.4,64.4,0,0,1-10,4c-6.71,2.21-15.78,4.75-21,7-11,4.75-24.71,11.25-37,17-2.66,1.25-3.4,3.07-5,4a134.48,134.48,0,0,1-23,10c-7.52,2.35-15.34,4.36-19,3-17.79-6.62-31.55-15.15-51-23-12.62-5.1-50.3-11.39-48-20,.8-1,.35-1.27,1-3,1.76-1.08,4-3.66,6-5,1.24-2.42,35.64-1,70-1,17.93,0,37.5-1,49-3C758.75,363.3,778.64,362,787,362Z" transform="translate(-181.25 -349)" fill="none" fill-rule="evenodd"/>
    <image id="skygge_saddel_et_Image" data-name="skygge_saddel_et Image" width="217" height="60" transform="translate(440.75 12)" xlink:href="cykelconfiguator9.png"/>
  </g>
  <g id="saddel_to" style="isolation: isolate">
    <image id="saddel_to_Image" data-name="saddel_to Image" width="209" height="146" transform="translate(460.75)" xlink:href="cykelconfiguator10.png"/>
    <path d="M657,351c13.11-.08,25.43.68,35,3,9,2.17,21.33.07,28,2h44c16.33,0,32.26-.42,49,0,8,.92,16.45,3.22,25,5,4.77,2.42,7.84,7.33,11,14-8.12.43-22,3.47-34.88,6.73C800.32,385.22,787.77,389,785,390c-9.09,3.38-26.92,15.47-41,12-16.54-4.08-30.7-17.81-44-26l-15-3c-2.21-1.09-4.48-4.88-7-6-7.67-3.4-18.1-2.9-26-6-.36-2.27-.22-1.51,0-5Z" transform="translate(-181.25 -349)" fill="none" fill-rule="evenodd"/>
    <g id="skygge_saddel_to_Image" data-name="skygge_saddel_to Image">
      <image id="skygge_saddel_to_Image-2" data-name="skygge_saddel_to Image" width="198" height="52" transform="translate(469.75 2)" xlink:href="cykelconfiguator11.png"/>
    </g>
  </g>
  <g id="styr_et" style="isolation: isolate">
    <image id="styr_et_Image" data-name="styr_et Image" width="160" height="103" transform="translate(928.75 12)" xlink:href="cykelconfiguator12.png"/>
    <path d="M1194,387h3c6,2.54,8.58,13.82,4,22-24.88,1.91-47.7,6.59-69,10a35.42,35.42,0,0,0,1-11c-.14-3.24-1.62-6.91-4-11,12.49-1.19,25.15-4,38-6C1175.9,389.6,1185.27,388.5,1194,387Z" transform="translate(-181.25 -349)" fill="none" fill-rule="evenodd"/>
    <image id="skygge_styr_et_Image" data-name="skygge_styr_et Image" width="75" height="32" transform="translate(947.75 38)" xlink:href="cykelconfiguator13.png"/>
  </g>
  <g id="styr_to" style="isolation: isolate">
    <image id="styr_to_Image" data-name="styr_to Image" width="160" height="103" transform="translate(928.75 12)" xlink:href="cykelconfiguator14.png"/>
    <path d="M1194,387c5.44-.68,7,0,9,0,2.61,4.21,7.12,13.76,3,21-1.57,2.76-21.72,2.9-27,4-19.12,4-60.17,13.56-62,10a9.64,9.64,0,0,1-5-6c-.87-6.41-1.19-13.29,1-17,7.91-2.85,17.12-3.82,27-5,10.38-1.24,21.46-2.66,31-4C1179.85,388.76,1187.52,387.71,1194,387Z" transform="translate(-181.25 -349)" fill="none" fill-rule="evenodd"/>
    <image id="skygge_styr_to_Image" data-name="skygge_styr_to Image" width="97" height="37" transform="translate(929.75 37)" xlink:href="cykelconfiguator15.png"/>
  </g>
  <g id="lygte_Image" data-name="lygte Image">
    <image id="lygte_Image-2" data-name="lygte Image" width="68" height="65" transform="translate(1304.75 146)" xlink:href="cykelconfiguator16.png"/>
  </g>
  <g id="klokke_Image" data-name="klokke Image">
    <image id="klokke_Image-2" data-name="klokke Image" width="39" height="26" transform="translate(1048.75 7)" xlink:href="cykelconfiguator17.png"/>
  </g>
  <g id="støtteben_Image" data-name="støtteben Image">
    <image id="støtteben_Image-2" data-name="støtteben Image" width="76" height="155" transform="translate(638.75 604)" xlink:href="cykelconfiguator18.png"/>
  </g>
  <g id="kurv_Image" data-name="kurv Image">
    <image id="kurv_Image-2" data-name="kurv Image" width="294" height="489" transform="translate(1037.75 18)" xlink:href="cykelconfiguator19.png"/>
  </g>
</svg>
