<svg xmlns="http://www.w3.org/2000/svg" xmlns:xlink="http://www.w3.org/1999/xlink" viewBox="0 0 1359 762">
  <defs>
    <style>
      .cls-1 {
        fill: none;
        fill-rule: evenodd;
      }

      .cls-2 {
        isolation: isolate;
      }
    </style>
  </defs>
  <g id="forhjul">
    <image id="forhjul_Image" data-name="forhjul Image" width="514" height="513" transform="translate(845 243)" xlink:href="cykelconfiguator1.png"/>
    <path class="cls-1" d="M1409,603c13.78.82,43.69,6.5,56,12,18.07,8.07,37.55,16.45,54,27,30.35,19.47,53.1,42.91,74,75a239.7,239.7,0,0,1,32,73c3.3,13,3.41,17.53,5,28,5.32,35-.2,68.85-7,93-2.93,10.4-5.28,20-9,28-23.4,50.64-48.34,87.27-96,117-30.94,19.3-49.61,24.7-62,28-4,1.08-29.24,7.7-40,9-11.46,1.38-63.43,11.58-121-14-63.28-28.12-100.93-67.21-131-123-7.32-13.57-11.11-29.33-17-46-8.1-22.93-11.09-56-4-104,4-27.38,17.38-58.44,15-52,14.3-38.71,36.18-65.62,64-91,8.13-7.42,15.26-13.91,25-20,15.39-9.63,32.73-18.71,29-17,26.33-12.09,33.89-13.77,51-17C1346.79,605.26,1365.41,600.41,1409,603Zm-53,17c-11.93,2.16-45,10.41-60,17-12.14,5.35-30.9,16.24-29,15-23.08,15-49.28,35.5-68,62-3.82,5.41-8.72,12-12,18-8.7,15.83-14.53,31.06-21,50-8.55,25-8.36,49.45-9,63,.3,29.09,4.32,48.9,11,71a131.63,131.63,0,0,0,8,21c2.59,5.4,6.22,11.68,9,17,2,3.92,1.7,7.22,4,11,9.26,15.22,22.64,29.32,24,32,3.73,7.37,31.75,28.34,40,37,5,5.24,30.1,19.27,45,25,17.4,6.7,30.26,12.14,54,16,5.76,2.54,61.45,2.93,66,1,15.2-2.06,28.32-6.32,42-11,66.88-22.88,113.93-70.91,141-136,5.5-13.22,15.85-61,13-81-.93-33.06-1.86-41.12-13-74-5-14.82-9-24.33-16-37-1.76-3.2-5.23-9-7-12a101.56,101.56,0,0,0-13-18c-7.74-8.7-13.75-15.75-22-24-9.15-9.16-21.75-19.74-18-17-5.25-3.83-11.47-8.4-17-12-4.29-2.79-10.27-6-16-9-11.51-5.74-32.72-15-42-17,1.74-.35-25.34-6.92-38-8C1393,618,1374.59,618.48,1356,620Z" transform="translate(-283 -349)"/>
    <image id="forhjul_skygge_Image" data-name="forhjul_skygge Image" width="494" height="495" transform="translate(855 253)" xlink:href="cykelconfiguator2.png"/>
  </g>
  <g id="baghjul">
    <path class="cls-1" d="M564,603c13.78.82,43.69,6.5,56,12,18.07,8.07,37.55,16.45,54,27,30.35,19.47,53.1,42.91,74,75a239.7,239.7,0,0,1,32,73c3.3,13,3.41,17.53,5,28,5.32,35-.2,68.85-7,93-2.93,10.4-5.28,20-9,28-23.4,50.64-48.34,87.27-96,117-30.94,19.3-49.61,24.7-62,28-4,1.08-29.24,7.7-40,9-11.46,1.38-63.43,11.58-121-14-63.28-28.12-100.93-67.21-131-123-7.32-13.57-11.11-29.33-17-46-8.1-22.93-11.09-56-4-104,4.05-27.38,17.38-58.44,15-52,14.3-38.71,36.18-65.62,64-91,8.13-7.42,15.26-13.91,25-20,15.39-9.63,32.73-18.71,29-17,26.33-12.09,33.89-13.77,51-17C501.79,605.26,520.41,600.41,564,603Zm-53,17c-11.93,2.16-45,10.41-60,17-12.14,5.35-30.9,16.24-29,15-23.08,15-49.28,35.5-68,62-3.82,5.41-8.72,12-12,18-8.7,15.83-14.53,31.06-21,50-8.55,25-8.36,49.45-9,63,.3,29.09,4.32,48.9,11,71a131.63,131.63,0,0,0,8,21c2.59,5.4,6.22,11.68,9,17,2.05,3.92,1.7,7.22,4,11,9.26,15.22,22.64,29.32,24,32,3.73,7.37,31.75,28.34,40,37,5,5.24,30.1,19.27,45,25,17.4,6.7,30.26,12.14,54,16,5.76,2.54,61.45,2.93,66,1,15.2-2.06,28.32-6.32,42-11,66.88-22.88,113.93-70.91,141-136,5.5-13.22,15.85-61,13-81-.93-33.06-1.86-41.12-13-74-5-14.82-9-24.33-16-37-1.76-3.2-5.23-9-7-12a101.56,101.56,0,0,0-13-18c-7.74-8.7-13.75-15.75-22-24-9.15-9.16-21.75-19.74-18-17-5.25-3.83-11.47-8.4-17-12-4.29-2.79-10.27-6-16-9-11.51-5.74-32.72-15-42-17,1.74-.35-25.34-6.92-38-8C548,618,529.59,618.48,511,620Z" transform="translate(-283 -349)"/>
    <image id="baghjul_Image" data-name="baghjul Image" width="514" height="513" transform="translate(0 243)" xlink:href="cykelconfiguator3.png"/>
    <image id="baghjul_skygge_Image" data-name="baghjul_skygge Image" width="494" height="495" transform="translate(11 253)" xlink:href="cykelconfiguator4.png"/>
  </g>
  <g id="stel">
    <image id="stel_Image" data-name="stel Image" width="892" height="530" transform="translate(238 17)" xlink:href="cykelconfiguator5.png"/>
    <path class="cls-1" d="M1379,840c.08,6.92-1.64,8.34-3,13l-1-1c-1.15-1.8-.34-3-1-4-1.18-.8-1.68-.77-4-1-1.66.83-2.59.24-6,0,.45-5.67,2.4-6.35,3-12-5.24-4.19-7.17-10.29-11-16-.86-1.28-14.73-18.29-21-27-13.56-18.85-28-37.8-42-57-11.53-15.8-25.39-76.31-26-78-2.46-6.84-4.82-15.87-7-23-2.45-12.89-7.65-25.45-14-49l-6-1a121.57,121.57,0,0,0-3-12c-3.15-1.46-4.31-4.17-8-5-15.81,13.73-29.46,26.21-45,40-4.5,4-13.59,13.88-18,18-25.31,23.62-78,77.2-74,74-4.62,3.69-72.5,69.62-83,81-6.07,6.58-11.68,13.65-18,20-1.75,1.75-31.22,35-37,41s-17,14-17,14l-21-21s19.94-16.55,32-31c6.18-5.94,67-64,67-64s60.29-59.29,38-37c15-15,43-42,58-57,41.86-41.86,71.16-68.62,114-110,.65-8.28-1.26-20.41-9-23-5.07-3.18-19.78-1-27-1-20.93,0-67,2-67,2-.55.23-116.15,4.48-112,4,6.33,0-80,2-123,2-26.18,0-56.21.11-84,2-33.31,2.26-26.84,4.43-20,25,4.31,13,21.07,69,26,85,9.88,32.16,19.83,66.18,29,95,3.56,11.18,5,19.93,9,31,5.07,14.13,8.12,28.48,13,44,2.44,7.75,5.66,16.34,5,22-3.58,1.42-13.36,1.49-20,2-3.73-4.39-7-13-8-20a114.13,114.13,0,0,0-1-12c-1.39-6-3-13.82-5-20-17.57-53.86-31.69-108.37-50-163-5.82-17.36-12.27-37.78-17-55-2.4-8.75.28-19-10-20-3.73,3.92-8,8.21-11,12-3.77,4.78-20.55,30.93-22,33-6.87,9.8-13.31,19.07-20,29-4,6-7.92,11.2-12,17-3.09,4.39-7.12,9.4-10,14-2,3.22-7,10.77-9,14-8,13-17,25.82-21,31-3,3.9-8.82,12.53-9,13a90.12,90.12,0,0,1-6,8c-2.86,3.37-6.43,9.85-8,12-3.28,4.51-5.83,8.39-9,13-5.87,8.55-17.2,25.54-23,34-12.26,17.89-18.42,28.15-31,46-2.9,4.11-11.93,13.35-8,21,2.52,6.87,12.55,9.7,20,12,6.42,2,18.64.47,26-2,2.13-5.77,0-13,5-16,3.75-1.68,6,.4,6,5-.49,3.29-.11,8.31,0,12,7.5.07,12.27,3,18,4,16.25,2.72,48.33,7.2,55,8,16.88,1.87,42,5,42,5s18.43,2.57,24,4c7.92,2,9.93,2.56,18,5,3.23,1,8.36,1.9,11,3,4.39,1.82,20,5,25,6,0,1.67-1.44,3.64-1,4s-1,4.17-2,6c-1,4.36-2,5.54-3,8-.91,2.2-5.86.86-9.78.35C782.6,894.3,781,894.3,776,893c-11.4-2.94-26-5-38-8-3.33,0-8.67-2-12-2-31.32-4.58-60.59-8.69-91-13-9.12-1.4-14-3-18-3-15.8-1.5-22.74-1.82-34-4-9.42-1.82-19.75-2.29-27-7-4-4-9-8-13-12-4.28-2.49-9-3.47-11,0-1.21,2.11-1.54,3.1,0,6,5.3,3.55,14.89,6.86,16,13-.92.88-1.45,1.79-3,2-8-1.48-17.2-5.08-21-11-2.74-3.31-3.42-8-2.83-14.09,5-4.78,11.58-13.74,16.83-20.91,1.55-2.11,6.63-7.5,7-8,1.39-1.9,6.22-7,8-10,9.66-16.27,21.46-30.61,32-46,10.14-14.81,18.23-26.4,31-44,5.82-8,63.19-91.92,94-138,6.72-10.06,13.12-19.94,20-30,5.36-7.83,12.71-16.46,18-26,.67-9.49-1-23.68-1-29,1.75-.5,8.22-3.43,10-4a97.4,97.4,0,0,1,11-2c.51,5.29.48,13.3,3,15,2,2,23.3,0,33,0,28.72,0,50.77-1,80-1,22.33,0,46.67-1,69-1,14.81,0,39.49.14,41,0,1.76-.16,30.23-.59,32-1-28.52,0,132-2,132-2s38.78.55,52-2c1.34-3.27,2.25-7,5-9,4.87-3.72,16.89-6.62,24-7l1,1c.19,8,3.92,13.6,6,19,2,5.17-3.36,20.47-2,25,1.14,3.81,5.63,6.16,7,9,2.08,4.3-.1,8.37,2,12l7,7c3.06,6.7,1.65,13.6,4,21,.29.9,2.83,3.52,3,4,1.4,4-2.6,4.87-2,8,.79,4.12,3.85,5,2,10,5.7,11.65,8.13,25.38,12,39,12.24,43.11,21.11,86.66,43,120,16.54,25.19,34.75,50.93,53,75,2,2.69,3.77,1.18,7,3v1c2.64,1.92,3.54,6.5,6,8,4.53,2.76,6.92.8,9,6,1.08,2,.15,7.51,0,12-3.1,1.68-3,2.67-8,3v-2c-1.71-2.87.45-5.22,0-8-.23-1.43-2.34-4.51-3-6ZM533,829v4h3c.63-1.75.19-1,1-2l-1-1C534.93,829.25,535.05,829.4,533,829Z" transform="translate(-283 -349)"/>
    <image id="stel_skygge_Image" data-name="stel_skygge Image" width="892" height="530" transform="translate(238 17)" xlink:href="cykelconfiguator6.png"/>
  </g>
  <g id="base">
    <image width="1134" height="745" transform="translate(0 17)" xlink:href="cykelconfiguator7.png"/>
  </g>
  <g id="saddel_et">
    <image id="saddel_et_Image" data-name="saddel_et Image" width="220" height="136" transform="translate(338 10)" xlink:href="cykelconfiguator8.png"/>
    <path class="cls-1" d="M787,362c13.51-.3,27-.81,37,2a37.49,37.49,0,0,1,14,7c.43,1.58.91,2.63-1,4a64.4,64.4,0,0,1-10,4c-6.71,2.21-15.78,4.75-21,7-11,4.75-24.71,11.25-37,17-2.66,1.25-3.4,3.07-5,4a134.48,134.48,0,0,1-23,10c-7.52,2.35-15.34,4.36-19,3-17.79-6.62-31.55-15.15-51-23-12.62-5.1-50.3-11.39-48-20,.8-1,.35-1.27,1-3,1.76-1.08,4-3.66,6-5,1.24-2.42,35.64-1,70-1,17.93,0,37.5-1,49-3C758.75,363.3,778.64,362,787,362Z" transform="translate(-283 -349)"/>
    <image id="skygge_saddel_et_Image" data-name="skygge_saddel_et Image" width="217" height="60" transform="translate(339 12)" xlink:href="cykelconfiguator9.png"/>
  </g>
  <g id="saddel_to">
    <image id="saddel_to_Image" data-name="saddel_to Image" width="209" height="146" transform="translate(359)" xlink:href="cykelconfiguator10.png"/>
    <path class="cls-1" d="M657,351c13.11-.08,25.43.68,35,3,9,2.17,21.33.07,28,2h44c16.33,0,32.26-.42,49,0,8,.92,16.45,3.22,25,5,4.77,2.42,7.84,7.33,11,14-8.12.43-22,3.47-34.88,6.73C800.32,385.22,787.77,389,785,390c-9.09,3.38-26.92,15.47-41,12-16.54-4.08-30.7-17.81-44-26l-15-3c-2.21-1.09-4.48-4.88-7-6-7.67-3.4-18.1-2.9-26-6-.36-2.27-.22-1.51,0-5Z" transform="translate(-283 -349)"/>
    <image id="skygge_saddel_to_Image" data-name="skygge_saddel_to Image" width="198" height="52" transform="translate(368 2)" xlink:href="cykelconfiguator11.png"/>
  </g>
  <g id="styr_et">
    <image id="styr_et_Image" data-name="styr_et Image" width="160" height="103" transform="translate(827 12)" xlink:href="cykelconfiguator12.png"/>
    <path class="cls-1" d="M1194,387h3c6,2.54,8.58,13.82,4,22-24.88,1.91-47.7,6.59-69,10a35.42,35.42,0,0,0,1-11c-.14-3.24-1.62-6.91-4-11,12.49-1.19,25.15-4,38-6C1175.9,389.6,1185.27,388.5,1194,387Z" transform="translate(-283 -349)"/>
    <image id="skygge_styr_et_Image" data-name="skygge_styr_et Image" width="75" height="32" transform="translate(846 38)" xlink:href="cykelconfiguator13.png"/>
  </g>
  <g id="styr_to" class="cls-2">
    <image id="styr_to_Image" data-name="styr_to Image" width="160" height="103" transform="translate(827 12)" xlink:href="cykelconfiguator14.png"/>
    <path class="cls-1" d="M1194,387c5.44-.68,7,0,9,0,2.61,4.21,7.12,13.76,3,21-1.57,2.76-21.72,2.9-27,4-19.12,4-60.17,13.56-62,10a9.64,9.64,0,0,1-5-6c-.87-6.41-1.19-13.29,1-17,7.91-2.85,17.12-3.82,27-5,10.38-1.24,21.46-2.66,31-4C1179.85,388.76,1187.52,387.71,1194,387Z" transform="translate(-283 -349)"/>
    <image id="skygge_styr_to_Image" data-name="skygge_styr_to Image" width="97" height="37" transform="translate(828 37)" xlink:href="cykelconfiguator15.png"/>
  </g>
  <g id="lygte_Image" data-name="lygte Image">
    <image id="lygte_Image-2" data-name="lygte Image" width="68" height="65" transform="translate(1203 146)" xlink:href="cykelconfiguator16.png"/>
  </g>
  <g id="klokke_Image" data-name="klokke Image">
    <image id="klokke_Image-2" data-name="klokke Image" width="39" height="26" transform="translate(947 7)" xlink:href="cykelconfiguator17.png"/>
  </g>
  <g id="støtteben_Image" data-name="støtteben Image">
    <image id="støtteben_Image-2" data-name="støtteben Image" width="76" height="155" transform="translate(537 604)" xlink:href="cykelconfiguator18.png"/>
  </g>
  <g id="kurv_Image" data-name="kurv Image">
    <image id="kurv_Image-2" data-name="kurv Image" width="294" height="489" transform="translate(936 18)" xlink:href="cykelconfiguator19.png"/>
  </g>
</svg>
