<svg xmlns="http://www.w3.org/2000/svg" xmlns:xlink="http://www.w3.org/1999/xlink" viewBox="0 0 160 103">
  <g id="Layer_2" data-name="Layer 2">
    <g id="styr_to" style="isolation: isolate">
      <image id="styr_to_Image" data-name="styr_to Image" width="160" height="103" xlink:href="handle11.png"/>
      <path d="M84,26c5.44-.68,7,0,9,0,2.61,4.21,7.12,13.76,3,21-1.57,2.76-21.72,2.9-27,4C49.88,55,8.83,64.56,7,61a9.64,9.64,0,0,1-5-6C1.13,48.59.81,41.71,3,38c7.91-2.85,17.12-3.82,27-5,10.38-1.24,21.46-2.66,31-4C69.85,27.76,77.52,26.71,84,26Z" fill="none" fill-rule="evenodd"/>
      <image id="skygge_styr_to_Image" data-name="skygge_styr_to Image" width="97" height="37" transform="translate(1 25)" xlink:href="handle12.png"/>
    </g>
  </g>
</svg>
