<svg xmlns="http://www.w3.org/2000/svg" xmlns:xlink="http://www.w3.org/1999/xlink" viewBox="0 0 220 136">
  <g id="Layer_2" data-name="Layer 2">
    <g id="saddel_et">
      <image id="saddel_et_Image" data-name="saddel_et Image" width="220" height="136" xlink:href="saddle11.png"/>
      <path d="M166,3c13.51-.3,27-.81,37,2a37.49,37.49,0,0,1,14,7c.43,1.58.91,2.63-1,4a64.4,64.4,0,0,1-10,4c-6.71,2.21-15.78,4.75-21,7-11,4.75-24.71,11.25-37,17-2.66,1.25-3.4,3.07-5,4a134.48,134.48,0,0,1-23,10c-7.52,2.35-15.34,4.36-19,3C83.21,54.38,69.45,45.85,50,38,37.38,32.9-.3,26.61,2,18c.8-1,.35-1.27,1-3,1.76-1.08,4-3.66,6-5,1.24-2.42,35.64-1,70-1,17.93,0,37.5-1,49-3C137.75,4.3,157.64,3,166,3Z" fill="none" fill-rule="evenodd"/>
      <image id="skygge_saddel_et_Image" data-name="skygge_saddel_et Image" width="217" height="60" transform="translate(1 2)" xlink:href="saddle12.png"/>
    </g>
  </g>
</svg>
